<svg width="32" height="32" viewBox="0 0 32 32" fill="none" xmlns="http://www.w3.org/2000/svg">
<path d="M11.8807 8.7H12.2978H16.6539H17.2532L17.1458 9.28965L15.4382 18.6591C15.4381 18.6594 15.4381 18.6598 15.438 18.6601C15.2237 19.8624 14.7189 20.9125 13.9234 21.7983L11.8807 8.7ZM11.8807 8.7L11.8059 9.11036M11.8807 8.7L11.8059 9.11036M11.8059 9.11036L10.1606 18.1389L10.1606 18.1389L10.1599 18.1432C10.0957 18.514 9.94998 18.8379 9.72159 19.1233C9.48924 19.4136 9.19529 19.6459 8.83178 19.8198C8.48048 19.9857 8.09221 20.0714 7.65971 20.0714C7.23181 20.0714 6.89927 19.9857 6.64081 19.8386C6.37748 19.684 6.19899 19.4835 6.0874 19.2326C5.9783 18.9872 5.9411 18.6887 6.00532 18.316L7.65019 9.28964L7.75764 8.7H7.15829H2.80223H2.38512L2.31033 9.11035L0.602376 18.4818L0.602025 18.4837C0.388661 19.6816 0.50547 20.7635 0.99648 21.697L0.996468 21.697L0.998226 21.7003C1.4903 22.6192 2.27367 23.3151 3.31282 23.7965L3.31469 23.7974C4.3531 24.2733 5.59863 24.5 7.03294 24.5C8.46018 24.5 9.77123 24.2723 10.9596 23.8087L10.9613 23.808M11.8059 9.11036L10.9613 23.808M10.9613 23.808C12.1484 23.3399 13.14 22.6717 13.9234 21.7984L10.9613 23.808ZM26.2506 13.7218L26.1958 14.2714H26.7481H30.9161H31.3323L31.4078 13.8622C31.6017 12.8123 31.494 11.8543 31.0432 11.0204C30.6005 10.1919 29.8783 9.56874 28.9204 9.13719C27.9649 8.70431 26.8058 8.5 25.4632 8.5C24.1376 8.5 22.9157 8.70314 21.8031 9.11687C20.6985 9.5248 19.7704 10.1055 19.0325 10.8662L19.0323 10.8663C18.2909 11.6314 17.8229 12.5356 17.6378 13.569L17.6378 13.5694C17.4118 14.8373 17.6786 15.9217 18.5229 16.7204C19.2458 17.4042 20.2578 17.8826 21.5168 18.1857H20.9505H16.8138H16.3957L16.3217 18.5972C16.0898 19.8858 16.1877 21.0141 16.6882 21.9322L16.6881 21.9322L16.69 21.9355C17.1887 22.8339 17.9878 23.4847 19.0435 23.9009L19.0463 23.902C20.0911 24.3065 21.3364 24.5 22.7681 24.5C24.1676 24.5 25.4194 24.321 26.5157 23.9525C27.6124 23.5839 28.524 23.0381 29.2313 22.3041C29.9456 21.5629 30.3984 20.6582 30.5929 19.606C30.7077 18.9934 30.7083 18.4093 30.5811 17.8608C30.4573 17.3041 30.1976 16.8034 29.8112 16.3631C29.4216 15.9191 28.9017 15.5536 28.2723 15.2561C27.6444 14.9521 26.8842 14.7153 26.0013 14.5385C26.0009 14.5385 26.0005 14.5384 26.0001 14.5383L24.7489 14.2816L24.7489 14.2816L24.7443 14.2807C24.3948 14.2124 24.102 14.1368 23.8627 14.0556C23.6328 13.9759 23.4689 13.8933 23.3573 13.8152C23.2654 13.7476 23.227 13.6938 23.2108 13.6607C23.2019 13.6303 23.1973 13.5827 23.219 13.5037L23.2242 13.4846L23.2279 13.4651C23.2504 13.3474 23.3031 13.243 23.3981 13.1442C23.4938 13.0498 23.6482 12.9544 23.8908 12.8766C24.1296 12.8017 24.4509 12.7571 24.8678 12.7571C25.5336 12.7571 25.8775 12.8901 26.0352 13.0338L26.0352 13.0338L26.0384 13.0367C26.1944 13.1764 26.2851 13.3758 26.2506 13.7218ZM21.4456 18.755L21.5251 18.1877C21.6319 18.2133 21.7404 18.2377 21.8507 18.2608L21.8531 18.2613L23.3886 18.5756L23.3913 18.5761C23.951 18.6874 24.366 18.8058 24.6508 18.9253C24.9466 19.0495 25.0757 19.16 25.1223 19.2237C25.1614 19.2771 25.1774 19.33 25.1601 19.4206L25.1601 19.4206L25.1588 19.4279C25.1373 19.5501 25.0777 19.6689 24.9522 19.7895C24.8292 19.9078 24.6402 20.0201 24.3579 20.1086C24.0853 20.194 23.7364 20.2429 23.3009 20.2429C22.7907 20.2429 22.3999 20.1699 22.1092 20.0468C21.8247 19.9262 21.6503 19.7648 21.5456 19.5739C21.4439 19.3885 21.3934 19.1281 21.4456 18.755Z" fill="white" stroke="black"/>
</svg>
