<svg width="1681" height="1080" viewBox="0 0 1681 1080" fill="none" xmlns="http://www.w3.org/2000/svg">
<g opacity="0.07">
<line x1="0.250122" y1="1.09278e-08" x2="0.250075" y2="1080" stroke="#252526" stroke-width="0.5"/>
<line x1="152.069" y1="1.09409e-08" x2="152.069" y2="1080" stroke="#252526" stroke-width="0.5"/>
<line x1="172.046" y1="1.09409e-08" x2="172.046" y2="1080" stroke="#252526" stroke-width="0.5"/>
<line x1="321.867" y1="1.09409e-08" x2="321.867" y2="1080" stroke="#252526" stroke-width="0.5"/>
<line x1="341.844" y1="1.09409e-08" x2="341.843" y2="1080" stroke="#252526" stroke-width="0.5"/>
<line x1="491.665" y1="1.09409e-08" x2="491.665" y2="1080" stroke="#252526" stroke-width="0.5"/>
<line x1="511.641" y1="1.09409e-08" x2="511.641" y2="1080" stroke="#252526" stroke-width="0.5"/>
<line x1="661.463" y1="1.09409e-08" x2="661.463" y2="1080" stroke="#252526" stroke-width="0.5"/>
<line x1="681.439" y1="1.09409e-08" x2="681.439" y2="1080" stroke="#252526" stroke-width="0.5"/>
<line x1="831.261" y1="1.09409e-08" x2="831.261" y2="1080" stroke="#252526" stroke-width="0.5"/>
<line x1="851.237" y1="1.09409e-08" x2="851.237" y2="1080" stroke="#252526" stroke-width="0.5"/>
<line x1="1001.06" y1="1.09409e-08" x2="1001.06" y2="1080" stroke="#252526" stroke-width="0.5"/>
<line x1="1020.04" y1="1.09409e-08" x2="1020.04" y2="1080" stroke="#252526" stroke-width="0.5"/>
<line x1="1170.86" y1="1.09409e-08" x2="1170.86" y2="1080" stroke="#252526" stroke-width="0.5"/>
<line x1="1190.83" y1="1.09409e-08" x2="1190.83" y2="1080" stroke="#252526" stroke-width="0.5"/>
<line x1="1340.65" y1="1.09409e-08" x2="1340.65" y2="1080" stroke="#252526" stroke-width="0.5"/>
<line x1="1360.63" y1="1.09409e-08" x2="1360.63" y2="1080" stroke="#252526" stroke-width="0.5"/>
<line x1="1509.45" y1="1.09409e-08" x2="1509.45" y2="1080" stroke="#252526" stroke-width="0.5"/>
<line x1="1530.43" y1="1.09409e-08" x2="1530.43" y2="1080" stroke="#252526" stroke-width="0.5"/>
<line x1="1680.25" y1="1.09409e-08" x2="1680.25" y2="1080" stroke="#252526" stroke-width="0.5"/>
</g>
</svg>
